<svg width="28" height="28" viewBox="0 0 28 28" fill="none" xmlns="http://www.w3.org/2000/svg">
<path d="M14 27.3333C12.1778 27.3333 10.4555 26.9831 8.83332 26.2826C7.2111 25.5831 5.79466 24.6275 4.58399 23.416C3.37243 22.2053 2.41688 20.7888 1.71732 19.1666C1.01688 17.5444 0.666656 15.8222 0.666656 14C0.666656 12.1555 1.01688 10.428 1.71732 8.81729C2.41688 7.20574 3.37243 5.79463 4.58399 4.58396C5.79466 3.3724 7.2111 2.4164 8.83332 1.71596C10.4555 1.0164 12.1778 0.666626 14 0.666626C15.8444 0.666626 17.572 1.0164 19.1827 1.71596C20.7942 2.4164 22.2053 3.3724 23.416 4.58396C24.6275 5.79463 25.5831 7.20574 26.2827 8.81729C26.9831 10.428 27.3333 12.1555 27.3333 14V15.9333C27.3333 17.2444 26.8835 18.3608 25.984 19.2826C25.0835 20.2053 23.9778 20.6666 22.6667 20.6666C21.8667 20.6666 21.1222 20.4888 20.4333 20.1333C19.7444 19.7777 19.1778 19.3111 18.7333 18.7333C18.1333 19.3333 17.428 19.8057 16.6173 20.1506C15.8058 20.4946 14.9333 20.6666 14 20.6666C12.1555 20.6666 10.5835 20.0164 9.28399 18.716C7.98355 17.4164 7.33332 15.8444 7.33332 14C7.33332 12.1555 7.98355 10.5831 9.28399 9.28263C10.5835 7.98307 12.1555 7.33329 14 7.33329C15.8444 7.33329 17.4169 7.98307 18.7173 9.28263C20.0169 10.5831 20.6667 12.1555 20.6667 14V15.9333C20.6667 16.5777 20.8667 17.0831 21.2667 17.4493C21.6667 17.8164 22.1333 18 22.6667 18C23.2 18 23.6667 17.8164 24.0667 17.4493C24.4667 17.0831 24.6667 16.5777 24.6667 15.9333V14C24.6667 11.0888 23.6164 8.58307 21.516 6.48263C19.4164 4.38307 16.9111 3.33329 14 3.33329C11.0889 3.33329 8.5831 4.38307 6.48266 6.48263C4.3831 8.58307 3.33332 11.0888 3.33332 14C3.33332 16.9111 4.3831 19.4164 6.48266 21.516C8.5831 23.6164 11.0889 24.6666 14 24.6666H20.6667V27.3333H14ZM14 18C15.1111 18 16.0555 17.6111 16.8333 16.8333C17.6111 16.0555 18 15.1111 18 14C18 12.8888 17.6111 11.9444 16.8333 11.1666C16.0555 10.3888 15.1111 9.99996 14 9.99996C12.8889 9.99996 11.9444 10.3888 11.1667 11.1666C10.3889 11.9444 9.99999 12.8888 9.99999 14C9.99999 15.1111 10.3889 16.0555 11.1667 16.8333C11.9444 17.6111 12.8889 18 14 18Z" fill="#FF9F0E"/>
</svg>
