<svg width="21" height="27" viewBox="0 0 21 27" fill="none" xmlns="http://www.w3.org/2000/svg">
<path d="M6.38375 6.71427C6.38375 5.58911 6.82997 4.51004 7.62424 3.71443C8.41851 2.91882 9.49577 2.47185 10.619 2.47185C11.7423 2.47185 12.8196 2.91882 13.6138 3.71443C14.4081 4.51004 14.8543 5.58911 14.8543 6.71427C14.8543 7.83944 14.4081 8.91851 13.6138 9.71412C12.8196 10.5097 11.7423 10.9567 10.619 10.9567C9.49577 10.9567 8.41851 10.5097 7.62424 9.71412C6.82997 8.91851 6.38375 7.83944 6.38375 6.71427ZM10.619 0.0476074C8.8539 0.0476074 7.16106 0.749987 5.91292 2.00023C4.66478 3.25047 3.96358 4.94616 3.96358 6.71427C3.96358 8.48238 4.66478 10.1781 5.91292 11.4283C7.16106 12.6786 8.8539 13.3809 10.619 13.3809C12.3842 13.3809 14.077 12.6786 15.3252 11.4283C16.5733 10.1781 17.2745 8.48238 17.2745 6.71427C17.2745 4.94616 16.5733 3.25047 15.3252 2.00023C14.077 0.749987 12.3842 0.0476074 10.619 0.0476074ZM0.333328 19.4415C0.333328 18.4771 0.7158 17.5522 1.3966 16.8702C2.07741 16.1883 3.00078 15.8052 3.96358 15.8052H17.2745C18.2373 15.8052 19.1607 16.1883 19.8415 16.8702C20.5223 17.5522 20.9048 18.4771 20.9048 19.4415V19.7155C20.9024 19.8286 20.8943 19.9414 20.8806 20.0537C20.8564 20.2634 20.8116 20.5482 20.7232 20.8852C20.4908 21.7741 20.0794 22.6061 19.5144 23.33C18.0986 25.1506 15.4352 26.7143 10.619 26.7143C5.80291 26.7143 3.14072 25.1506 1.72371 23.33C1.15825 22.6062 0.746465 21.7742 0.513631 20.8852C0.421202 20.5286 0.362057 20.1642 0.336959 19.7967C0.335789 19.7696 0.334982 19.7426 0.334538 19.7155V19.6876L0.333328 19.6779V19.4415ZM2.7535 19.6573V19.6719C2.77027 19.8757 2.80468 20.0776 2.85635 20.2755C2.96526 20.6973 3.18671 21.267 3.63202 21.8403C4.48513 22.9361 6.35955 24.29 10.619 24.29C14.8785 24.29 16.7542 22.9361 17.6061 21.8415C17.9679 21.3777 18.2314 20.8448 18.3805 20.2755C18.4326 20.0777 18.4674 19.8757 18.4846 19.6719L18.4858 19.6573V19.4415C18.4858 19.1201 18.3583 18.8118 18.1314 18.5844C17.9044 18.3571 17.5966 18.2294 17.2757 18.2294H3.96358C3.64265 18.2294 3.33486 18.3571 3.10792 18.5844C2.88099 18.8118 2.7535 19.1201 2.7535 19.4415V19.6573Z" fill="#FF9F0E"/>
</svg>
