<svg width="14" height="14" viewBox="0 0 14 14" fill="none" xmlns="http://www.w3.org/2000/svg">
<path d="M9.82922 12.3083C9.97506 12.1625 10.048 11.9898 10.048 11.7903C10.048 11.5912 9.97506 11.4188 9.82922 11.2729L5.55631 7.00001L9.84381 2.71251C9.97992 2.5764 10.048 2.40626 10.048 2.20209C10.048 1.99793 9.97506 1.82293 9.82922 1.67709C9.68339 1.53126 9.51072 1.45834 9.31122 1.45834C9.11211 1.45834 8.93964 1.53126 8.79381 1.67709L3.89381 6.59168C3.83547 6.65001 3.79406 6.7132 3.76956 6.78126C3.74545 6.84932 3.73339 6.92223 3.73339 7.00001C3.73339 7.07779 3.74545 7.1507 3.76956 7.21876C3.79406 7.28682 3.83547 7.35001 3.89381 7.40834L8.80839 12.3229C8.9445 12.459 9.11211 12.5271 9.31122 12.5271C9.51072 12.5271 9.68339 12.4542 9.82922 12.3083Z" fill="#181817"/>
</svg>
