<svg aria-hidden="true" style="position: absolute; width: 0; height: 0; overflow: hidden;" version="1.1" xmlns="http://www.w3.org/2000/svg" xmlns:xlink="http://www.w3.org/1999/xlink">
<defs>
<symbol id="icon-arrow-more" viewBox="0 0 82 32">
<path fill="#ff9f0e" style="fill: var(--color1, #ff9f0e)" d="M81.414 17.414c0.781-0.781 0.781-2.047 0-2.828l-12.728-12.728c-0.781-0.781-2.047-0.781-2.828 0s-0.781 2.047 0 2.828l11.314 11.314-11.314 11.314c-0.781 0.781-0.781 2.047 0 2.828s2.047 0.781 2.828 0l12.728-12.728zM0 18h80v-4h-80v4z"></path>
</symbol>
<symbol id="icon-arrow-rounded" viewBox="0 0 32 32">
<path d="M22.467 28.133c0.333-0.333 0.5-0.728 0.5-1.184s-0.167-0.849-0.5-1.183l-9.767-9.767 9.8-9.8c0.311-0.311 0.467-0.7 0.467-1.167s-0.167-0.867-0.5-1.2c-0.333-0.333-0.728-0.5-1.184-0.5s-0.849 0.167-1.183 0.5l-11.2 11.233c-0.133 0.133-0.228 0.278-0.284 0.433s-0.083 0.322-0.083 0.5 0.028 0.344 0.083 0.5c0.056 0.156 0.151 0.3 0.284 0.433l11.233 11.233c0.311 0.311 0.694 0.467 1.149 0.467s0.851-0.167 1.184-0.5z"></path>
</symbol>
<symbol id="icon-arrow-slider" viewBox="0 0 34 32">
<path fill="#fff" style="fill: var(--color2, #fff)" d="M33.414 17.414c0.781-0.781 0.781-2.047 0-2.828l-12.728-12.728c-0.781-0.781-2.047-0.781-2.828 0s-0.781 2.047 0 2.828l11.314 11.314-11.314 11.314c-0.781 0.781-0.781 2.047 0 2.828s2.047 0.781 2.828 0l12.728-12.728zM-0 18h32v-4h-32v4z"></path>
</symbol>
<symbol id="icon-burger" viewBox="0 0 46 32">
<path fill="#ff9f0e" style="fill: var(--color1, #ff9f0e)" d="M45.714 29.726c0 1.257-1.019 2.274-2.274 2.274h-18.309c-0.603 0-1.182-0.24-1.608-0.666s-0.666-1.005-0.666-1.608c0-0.603 0.24-1.182 0.666-1.608s1.005-0.666 1.608-0.666h18.309c1.257 0 2.274 1.017 2.274 2.274zM45.714 16c0 1.257-1.019 2.274-2.274 2.274h-41.166c-0.603 0-1.182-0.24-1.608-0.666s-0.666-1.005-0.666-1.608c0-0.603 0.24-1.182 0.666-1.608s1.005-0.666 1.608-0.666h41.166c1.257 0 2.274 1.019 2.274 2.274zM43.44 4.549c0.603 0 1.182-0.24 1.608-0.666s0.666-1.005 0.666-1.608c0-0.603-0.24-1.182-0.666-1.608s-1.005-0.666-1.608-0.666h-27.451c-0.299 0-0.594 0.059-0.87 0.173s-0.527 0.282-0.738 0.493c-0.211 0.211-0.379 0.462-0.493 0.738s-0.173 0.572-0.173 0.87c0 0.299 0.059 0.594 0.173 0.87s0.282 0.527 0.493 0.738c0.211 0.211 0.462 0.379 0.738 0.493s0.572 0.173 0.87 0.173h27.451z"></path>
</symbol>
<symbol id="icon-cart" viewBox="0 0 32 32">
<path fill="#ff9f0e" style="fill: var(--color1, #ff9f0e)" d="M1.504 12.4h29.001v-2.133h-29.001v2.133zM29.87 11.766v0.937h2.133v-0.937h-2.133zM26.427 29.467h-20.847v2.133h20.847v-2.133zM2.137 12.703v-0.937h-2.133v0.937h2.133zM6.182 29.838c-2.66-5.32-4.045-11.187-4.045-17.135h-2.133c0 6.281 1.461 12.474 4.271 18.091l1.907-0.956zM5.58 29.467c0.256 0 0.489 0.145 0.602 0.371l-1.907 0.956c0.121 0.242 0.308 0.446 0.538 0.588s0.496 0.218 0.767 0.218v-2.133zM25.826 29.838c0.056-0.112 0.142-0.206 0.248-0.271s0.229-0.1 0.354-0.1v2.133c0.555 0 1.058-0.312 1.306-0.806l-1.907-0.956zM29.87 12.703c0 5.948-1.387 11.814-4.045 17.135l1.907 0.956c2.809-5.617 4.271-11.811 4.271-18.091h-2.133zM30.504 12.4c-0.168 0-0.329-0.067-0.448-0.186s-0.186-0.28-0.186-0.448h2.133c0-0.398-0.158-0.779-0.439-1.060s-0.663-0.439-1.060-0.439v2.133zM1.504 10.267c-0.398 0-0.779 0.158-1.060 0.439s-0.439 0.663-0.439 1.060h2.133c0 0.168-0.067 0.329-0.186 0.448s-0.28 0.186-0.448 0.186v-2.133zM8.386 11.882l6.4-10.667-1.833-1.097-6.4 10.667 1.833 1.096zM17.222 1.215l6.4 10.667 1.83-1.096-6.4-10.667-1.83 1.097zM10.67 20.933h10.667v-2.133h-10.667v2.133z"></path>
</symbol>
<symbol id="icon-close" viewBox="0 0 32 32">
<path fill="none" stroke="#ff9f0e" style="stroke: var(--color1, #ff9f0e)" stroke-linejoin="miter" stroke-linecap="round" stroke-miterlimit="4" stroke-width="4.5714" d="M2.286 2.286l13.714 13.714 13.714-13.714"></path>
<path fill="none" stroke="#ff9f0e" style="stroke: var(--color1, #ff9f0e)" stroke-linejoin="miter" stroke-linecap="round" stroke-miterlimit="4" stroke-width="4.5714" d="M2.286 29.714l13.714-13.714 13.714 13.714"></path>
</symbol>
<symbol id="icon-facebook" viewBox="0 0 32 32">
<path fill="#ff9f0e" style="fill: var(--color1, #ff9f0e)" d="M29 16c0-2.571-0.762-5.085-2.191-7.222s-3.459-3.804-5.834-4.788c-2.375-0.984-4.989-1.241-7.511-0.74s-4.838 1.74-6.656 3.558c-1.818 1.818-3.056 4.134-3.558 6.656s-0.244 5.136 0.74 7.511c0.984 2.375 2.65 4.406 4.788 5.834s4.651 2.191 7.222 2.191c3.447-0.003 6.752-1.374 9.189-3.811s3.808-5.742 3.811-9.189zM17 26.95v-7.95h3c0.265 0 0.52-0.105 0.707-0.293s0.293-0.442 0.293-0.707c0-0.265-0.105-0.52-0.293-0.707s-0.442-0.293-0.707-0.293h-3v-3c0-0.53 0.211-1.039 0.586-1.414s0.884-0.586 1.414-0.586h2c0.265 0 0.52-0.105 0.707-0.293s0.293-0.442 0.293-0.707c0-0.265-0.105-0.52-0.293-0.707s-0.442-0.293-0.707-0.293h-2c-1.060 0.003-2.075 0.426-2.825 1.175s-1.172 1.765-1.175 2.825v3h-3c-0.265 0-0.52 0.105-0.707 0.293s-0.293 0.442-0.293 0.707c0 0.265 0.105 0.52 0.293 0.707s0.442 0.293 0.707 0.293h3v7.95c-2.819-0.257-5.43-1.592-7.291-3.725s-2.827-4.902-2.698-7.73c0.129-2.828 1.343-5.497 3.389-7.453s4.768-3.047 7.599-3.047 5.552 1.091 7.599 3.047c2.047 1.956 3.261 4.625 3.389 7.453s-0.838 5.596-2.698 7.73-4.472 3.468-7.291 3.725z"></path>
</symbol>
<symbol id="icon-instagram" viewBox="0 0 32 32">
<path fill="none" stroke="#ff9f0e" style="stroke: var(--color1, #ff9f0e)" stroke-linejoin="round" stroke-linecap="round" stroke-miterlimit="4" stroke-width="2.1" d="M16 21.333c1.414 0 2.771-0.562 3.771-1.562s1.562-2.357 1.562-3.771c0-1.414-0.562-2.771-1.562-3.771s-2.357-1.562-3.771-1.562-2.771 0.562-3.771 1.562c-1 1-1.562 2.357-1.562 3.771s0.562 2.771 1.562 3.771c1 1 2.357 1.562 3.771 1.562z"></path>
<path fill="none" stroke="#ff9f0e" style="stroke: var(--color1, #ff9f0e)" stroke-linejoin="miter" stroke-linecap="butt" stroke-miterlimit="4" stroke-width="2.1" d="M4 21.333v-10.667c0-1.768 0.702-3.464 1.953-4.714s2.946-1.953 4.714-1.953h10.667c1.768 0 3.464 0.702 4.714 1.953s1.953 2.946 1.953 4.714v10.667c0 1.768-0.702 3.464-1.953 4.714s-2.946 1.953-4.714 1.953h-10.667c-1.768 0-3.464-0.702-4.714-1.953s-1.953-2.946-1.953-4.714z"></path>
<path fill="none" stroke="#ff9f0e" style="stroke: var(--color1, #ff9f0e)" stroke-linejoin="round" stroke-linecap="round" stroke-miterlimit="4" stroke-width="2.1" d="M23.333 8.681l0.014-0.015"></path>
</symbol>
<symbol id="icon-star-gray" viewBox="0 0 34 32">
<path fill="#839aa9" style="fill: var(--color3, #839aa9)" d="M17.067 0l3.832 11.793h12.4l-10.032 7.288 3.832 11.793-10.032-7.288-10.032 7.288 3.832-11.793-10.032-7.288h12.4l3.832-11.793z"></path>
</symbol>
<symbol id="icon-star-yellow" viewBox="0 0 34 32">
<path fill="#fcb62a" style="fill: var(--color4, #fcb62a)" d="M17.067 0l3.832 11.793h12.4l-10.032 7.288 3.832 11.793-10.032-7.288-10.032 7.288 3.832-11.793-10.032-7.288h12.4l3.832-11.793z"></path>
</symbol>
</defs>
</svg>
