<svg width="28" height="28" viewBox="0 0 28 28" fill="none" xmlns="http://www.w3.org/2000/svg">
<path d="M25.8333 27.3333C22.3667 27.3333 19.1058 26.6777 16.0507 25.3666C12.9947 24.0555 10.328 22.2613 8.05066 19.984C5.77243 17.7057 3.97243 15.0391 2.65066 11.984C1.32799 8.92796 0.666657 5.65551 0.666657 2.16663C0.644435 1.76663 0.777768 1.4164 1.06666 1.11596C1.35555 0.816404 1.7111 0.666626 2.13332 0.666626H7.33332C7.73332 0.666626 8.07777 0.816404 8.36666 1.11596C8.65555 1.4164 8.79999 1.77774 8.79999 2.19996C8.79999 3.17774 8.86666 4.09996 8.99999 4.96663C9.13332 5.83329 9.34443 6.65551 9.63332 7.43329C9.74444 7.67774 9.76666 7.92751 9.69999 8.18263C9.63332 8.43863 9.49999 8.67774 9.29999 8.89996L5.96666 12.2333C6.92221 14.1888 8.27777 16.0444 10.0333 17.8C11.7889 19.5555 13.6778 20.9555 15.7 22L19.0333 18.6666C19.2333 18.4666 19.4667 18.3333 19.7333 18.2666C20 18.2 20.2667 18.2222 20.5333 18.3333C21.3555 18.6 22.2053 18.8053 23.0827 18.9493C23.9609 19.0942 24.8667 19.1666 25.8 19.1666C26.2222 19.1666 26.5835 19.3222 26.884 19.6333C27.1835 19.9444 27.3333 20.3222 27.3333 20.7666V25.8666C27.3333 26.2666 27.1889 26.6111 26.9 26.9C26.6111 27.1888 26.2555 27.3333 25.8333 27.3333ZM18.1667 23.3333C19.1667 23.7111 20.2111 24.0111 21.3 24.2333C22.3889 24.4555 23.5111 24.6 24.6667 24.6666V21.8C23.9778 21.7555 23.2724 21.6777 22.5507 21.5666C21.828 21.4555 21.1111 21.2888 20.4 21.0666L18.1667 23.3333ZM24.6667 14C24.6667 11.0222 23.6333 8.49996 21.5667 6.43329C19.5 4.36663 16.9778 3.33329 14 3.33329V0.666626C15.8444 0.666626 17.5778 1.0164 19.2 1.71596C20.8222 2.4164 22.2333 3.36663 23.4333 4.56663C24.6333 5.76663 25.5831 7.17774 26.2827 8.79996C26.9831 10.4222 27.3333 12.1555 27.3333 14H24.6667ZM19.3333 14C19.3333 12.5333 18.8111 11.2777 17.7667 10.2333C16.7222 9.18885 15.4667 8.66663 14 8.66663V5.99996C16.2222 5.99996 18.1111 6.77774 19.6667 8.33329C21.2222 9.88885 22 11.7777 22 14H19.3333ZM4.66666 9.76663L6.86666 7.53329C6.68888 6.88885 6.53866 6.21107 6.41599 5.49996C6.29421 4.78885 6.2111 4.06663 6.16666 3.33329H3.36666C3.4111 4.39996 3.54443 5.46663 3.76666 6.53329C3.98888 7.59996 4.28888 8.67774 4.66666 9.76663Z" fill="#FF9F0E"/>
</svg>
