<svg width="22" height="28" viewBox="0 0 22 28" fill="none" xmlns="http://www.w3.org/2000/svg">
<path d="M1.46666 27.3333V14.5333L1.09999 14.1666C0.85555 13.9222 0.666662 13.6333 0.533328 13.3C0.399995 12.9666 0.333328 12.6222 0.333328 12.2666C0.333328 11.9111 0.399995 11.5724 0.533328 11.2506C0.666662 10.928 0.85555 10.6444 1.09999 10.4L5.46666 5.99996H10.8L16.1333 0.666626L18.8667 3.39996C19.7555 4.28885 20.4444 5.29418 20.9333 6.41596C21.4222 7.53863 21.6667 8.73329 21.6667 9.99996C21.6667 11.2666 21.4222 12.4613 20.9333 13.584C20.4444 14.7057 19.7555 15.7111 18.8667 16.6L16.1333 19.3333V27.3333H1.46666ZM4.13333 24.6666H13.4667V18.2333L16.9667 14.7333C17.6111 14.0888 18.1111 13.3666 18.4667 12.5666C18.8222 11.7666 19 10.9111 19 9.99996C19 9.11107 18.8164 8.26663 18.4493 7.46663C18.0831 6.66663 17.5889 5.9444 16.9667 5.29996L16.1333 4.43329L11.9 8.66663H6.56666L5.79999 9.43329L8.03333 11.6666C8.65555 12.2888 9.13911 13.0053 9.48399 13.816C9.82799 14.6275 9.99999 15.4777 9.99999 16.3666C9.99999 17.2555 9.83333 18.1057 9.49999 18.9173C9.16666 19.728 8.67777 20.4555 8.03333 21.1L4.13333 17.2V24.6666Z" fill="#FF9F0E"/>
</svg>
